# xmcd CD database file
#
# Track frame offsets:
#	150
#	16148
#	35416
#
# Disc length: 557 seconds
#
# Revision: 0
# Processed by: cddbd v1.5.1PL0 Copyright (c) Steve Scherf et al.
# Submitted via: CDex 1.51
#
DISCID=17022b03
DTITLE=Thirteen Senses - Into The Fire - EP
DYEAR=2004
DGENRE=New Age
TTITLE0=Into The Fire - Alternative Album Mix
TTITLE1=Falling To The Ground
TTITLE2=Tended To Break Us
EXTD=YEAR: 2004
EXTT0=
EXTT1=
EXTT2=
PLAYORDER=
